<?xml version="1.0" encoding="UTF-8"?>
<svg id="Layer_2" data-name="Layer 2" xmlns="http://www.w3.org/2000/svg" viewBox="0 0 450.8 217.67">
  <defs>
    <style>
      .cls-1 {
        fill: #fff;
      }

      .cls-2 {
        fill: #ec4f5d;
      }

      .cls-3 {
        stroke: #451410;
        stroke-miterlimit: 10;
        stroke-width: .75px;
      }

      .cls-3, .cls-4 {
        fill: #451410;
      }

      .cls-5 {
        fill: #451511;
      }

      .cls-4 {
        font-family: Lato-Regular, Lato;
        font-size: 21px;
        letter-spacing: .05em;
      }

      .cls-6 {
        fill: #cd3441;
      }
    </style>
  </defs>
  <g id="Layer_1-2" data-name="Layer 1">
    <g>
      <path class="cls-3" d="m32.86,182.91c-3.19,1.32-6.42,2.7-9.69,4.14-3.27,1.44-6.36,2.67-9.28,3.68-2.92,1.01-5.52,1.69-7.82,2.04-2.29.35-4.06.1-5.31-.76,0-.16-.02-.25-.06-.29-.04-.04-.06-.13-.06-.29-.7-.86-.08-1.71,1.87-2.57,1.95-.86,4.61-1.79,7.99-2.8,3.38-1.01,7.22-2.14,11.5-3.38,4.28-1.24,8.4-2.72,12.37-4.43.62-.31,1.19-.64,1.69-.99.5-.35.99-.88,1.46-1.58,6.3-9.72,12.56-19.41,18.79-29.06,6.22-9.65,12.49-19.37,18.79-29.18.23-.39.45-.78.64-1.17.19-.39.45-.85.76-1.4-1.17,0-2.24-.04-3.21-.12-.97-.08-1.97-.04-2.98.12-5.21.47-10.25,1.03-15.11,1.69-4.86.66-9.74,1.54-14.65,2.63-.39.16-.86.33-1.4.53-.55.19-1.01-.1-1.4-.88-.16-.47-.02-1.11.41-1.93.43-.82,1.07-1.3,1.93-1.46,5.99-1.94,12.06-3.07,18.21-3.38,6.15-.31,12.33-.47,18.56-.47.7,0,1.26-.14,1.69-.41.43-.27.83-.68,1.23-1.23.62-1.01,1.21-1.96,1.75-2.86.54-.89,1.17-1.77,1.87-2.63.62-.93,1.4-1.75,2.33-2.45.15-.15.37-.23.64-.23s.45.08.53.23c.15.16.27.39.35.7.08.31.08.58,0,.82-.08.62-.39,1.21-.93,1.75-.62,1.09-1.21,2.14-1.75,3.15-.55,1.01-1.17,2.06-1.87,3.15,1.94.16,3.81.31,5.6.47,1.79.16,3.58.39,5.37.7,4.04.62,8.07,1.34,12.08,2.16,4.01.82,7.92,1.97,11.73,3.44,1.63.62,3.19,1.32,4.67,2.1,1.48.78,2.88,1.83,4.2,3.15,1.79,1.79,2.84,3.75,3.15,5.89.31,2.14-.16,4.34-1.4,6.59-.86,1.63-1.93,3.07-3.21,4.32-1.28,1.25-2.59,2.41-3.91,3.5-2.96,2.33-5.99,4.44-9.1,6.3-3.11,1.87-6.3,3.58-9.57,5.13-4.67,2.26-9.34,4.4-14,6.42-4.67,2.02-9.41,4.05-14.24,6.07-5.45,2.18-10.87,4.22-16.28,6.13-5.41,1.91-10.83,3.87-16.28,5.89-1.09.39-1.97.86-2.63,1.4-.66.55-1.3,1.25-1.93,2.1-.86,1.4-1.77,2.94-2.74,4.61-.97,1.67-1.97,3.17-2.98,4.49-1.48,1.71-2.49,2.76-3.03,3.15-.55.39-.84.35-.88-.12-.04-.47.18-1.25.64-2.33s.99-2.28,1.58-3.56,1.19-2.53,1.81-3.73c.62-1.21,1.13-2.2,1.52-2.98Zm9.92-8.17l.23.47c.54-.08.97-.23,1.28-.47,1.56-.47,3.11-.97,4.67-1.52,1.56-.54,3.11-1.09,4.67-1.63,7.55-2.8,14.96-5.64,22.23-8.52,7.27-2.88,14.57-6.07,21.88-9.57,3.73-1.79,7.37-3.69,10.91-5.72,3.54-2.02,6.94-4.39,10.21-7.12,1.01-.85,1.96-1.75,2.86-2.68.89-.93,1.73-1.94,2.51-3.03,1.4-1.79,1.96-3.5,1.69-5.13-.27-1.63-1.3-3.07-3.09-4.32-1.09-.78-2.26-1.48-3.5-2.1-1.25-.62-2.53-1.21-3.85-1.75-5.37-1.79-10.79-3.21-16.28-4.26s-11.07-1.77-16.75-2.16c-1.48-.08-2.49.47-3.03,1.63-1.71,2.96-3.44,5.85-5.19,8.69-1.75,2.84-3.52,5.62-5.31,8.34-3.97,6.23-7.96,12.43-11.96,18.61-4.01,6.19-7.99,12.35-11.96,18.5-.39.62-.76,1.25-1.11,1.87-.35.62-.72,1.25-1.11,1.87Z"/>
      <path class="cls-3" d="m148.16,150.58c.93-.16,1.83-.29,2.68-.41.85-.12,1.71-.25,2.57-.41.62-.16,1.4-.27,2.33-.35.93-.08,1.75-.19,2.45-.35h.88c.19,0,.48.08.88.23.23.16.45.37.64.64.19.27.25.57.17.88,0,.16-.16.35-.47.58-.31.23-.54.35-.7.35-.78.16-1.5.29-2.16.41-.66.12-1.38.22-2.16.29-1.48.31-2.94.57-4.38.76-1.44.2-2.86.45-4.26.76-.86.16-1.56.55-2.1,1.17-1.63,1.56-2.98,2.84-4.03,3.85-1.05,1.01-2.32,1.75-3.79,2.22-1.09.31-2.1.37-3.03.18-.93-.19-1.63-.72-2.1-1.58-.47-.85-.54-2.04-.23-3.56.31-1.52,1.17-3.4,2.57-5.66,1.01-1.56,2.2-2.98,3.56-4.26,1.36-1.28,2.82-2.55,4.38-3.79.62-.47,1.28-.88,1.98-1.23.7-.35,1.52-.56,2.45-.64,1.32-.15,2.33.06,3.03.64s1.01,1.54.93,2.86c0,.62-.12,1.27-.35,1.93-.23.66-.43,1.34-.58,2.04-.16.39-.33.76-.53,1.11-.19.35-.41.8-.64,1.34Zm-11.2.58c-1.32,1.63-1.98,3.02-1.98,4.14s.37,1.87,1.11,2.22c.74.35,1.63.27,2.68-.23,1.05-.51,1.96-1.58,2.74-3.21-1.25,0-2.26-.21-3.03-.64-.78-.43-1.28-1.19-1.52-2.28Zm9.92-7.7c-2.72.86-4.75,2.45-6.07,4.79-.16.31-.23.62-.23.93s.19.62.58.93c.47.47,1.11.66,1.93.58.82-.08,1.38-.43,1.69-1.05.47-.62.88-1.32,1.23-2.1.35-.78.64-1.52.88-2.22.15-.16.19-.39.12-.7-.08-.31-.12-.7-.12-1.17Z"/>
      <path class="cls-3" d="m174.13,150.12c-.65-.82-.56-1.83-.52-2.1-.47-1.09-1.13-1.63-1.98-1.63s-1.73.25-2.63.76c-.9.51-1.73,1.15-2.51,1.93s-1.4,1.36-1.87,1.75c-2.72,2.26-4.82,4.78-6.3,7.59-.23.62-.6,1.13-1.11,1.52-.5.39-.99.64-1.46.76s-.88.06-1.23-.18-.52-.7-.52-1.4c0-.39.08-.7.23-.93.16-.23.31-.5.47-.82,1.48-2.64,2.92-5.29,4.32-7.94,1.4-2.64,2.84-5.29,4.32-7.94.39-.78.89-1.48,1.52-2.1.16-.15.37-.27.64-.35.27-.08.48-.04.64.12.54.31.74.74.58,1.28,0,.55-.16,1.21-.47,1.98-.54,1.01-1.05,2.02-1.52,3.03-.47,1.01-.9,2.06-1.28,3.15.62-.47,1.01-.78,1.17-.93.78-.62,1.5-1.23,2.16-1.81.66-.58,1.34-1.11,2.04-1.58.93-.78,1.98-1.24,3.15-1.4,1.19-.28,2.16-.19,2.93.26.47.28.84.65,1.63,2.31,1.49,3.13,2.14,4.3,1.52,5.08-.66.84-2.88.88-3.91-.41Z"/>
      <path class="cls-3" d="m219.35,171.12c.78-.39,1.42-.66,1.93-.82.5-.16.91-.43,1.23-.82,1.56-1.17,3.11-2.37,4.67-3.62,1.56-1.24,3.07-2.53,4.55-3.85,1.71-1.56,3.54-3.17,5.48-4.84,1.94-1.67,3.73-3.33,5.37-4.96.85-.78,1.61-1.3,2.28-1.58.66-.27,1.13-.29,1.4-.06.27.23.27.66,0,1.28-.27.62-.88,1.4-1.81,2.33-3.19,3.27-6.4,6.44-9.63,9.51-3.23,3.07-6.71,5.89-10.44,8.46-.55.39-1.11.74-1.69,1.05-.58.31-1.19.55-1.81.7-1.32.47-2.47.35-3.44-.35-.97-.7-1.34-1.75-1.11-3.15.16-.93.35-1.85.58-2.74.23-.89.54-1.77.93-2.63,1.09-2.33,2.22-4.71,3.38-7.12,1.17-2.41,2.33-4.78,3.5-7.12.15-.31.27-.58.35-.82.08-.23.12-.54.12-.93-.39.31-.72.58-.99.82-.27.23-.57.47-.88.7-2.57,2.1-5.1,4.05-7.59,5.83-.39.16-.82.33-1.28.53-.47.19-.93.33-1.4.41-1.01.16-1.83-.04-2.45-.58-.62-.54-.89-1.28-.82-2.22.08-.54.23-1.09.47-1.63.23-.54.47-1.09.7-1.63,1.09-1.4,2.35-2.59,3.79-3.56,1.44-.97,3.01-1.77,4.73-2.39,1.24-.54,2.41-.82,3.5-.82.93-.16,1.77-.45,2.51-.88.74-.43,1.42-.95,2.04-1.58,2.41-2.72,4.61-5.54,6.59-8.46,1.98-2.92,3.99-5.89,6.01-8.93.16-.23.31-.51.47-.82.16-.31.35-.58.58-.82,1.17-1.48,2.18-1.98,3.03-1.52,1.01.55,1.01,1.75,0,3.62-.55.7-1.07,1.44-1.58,2.22-.51.78-.95,1.52-1.34,2.22-3.5,5.37-6.83,10.72-9.98,16.05-3.15,5.33-6.09,10.79-8.81,16.4-.7,1.32-1.32,2.68-1.87,4.08-.54,1.4-.97,3.07-1.28,5.02Zm-5.72-17.51c3.11-1.24,5.25-2.88,6.42-4.9-1.32.39-2.57.99-3.73,1.81s-2.06,1.85-2.68,3.09Z"/>
      <path class="cls-3" d="m268.01,150.58c.39-.16.74-.29,1.05-.41.31-.12.66-.25,1.05-.41.93-.16,1.59.12,1.98.82.39.93.16,1.6-.7,1.98-2.88,1.48-5.88,2.61-8.99,3.38-3.11.78-6.23,1.25-9.34,1.4-1.09.08-2.24.08-3.44,0-1.21-.08-2.3-.35-3.27-.82-.97-.47-1.69-1.15-2.16-2.04-.47-.89-.5-2.12-.12-3.68.55-1.56,1.05-2.64,1.52-3.27.47-.62,1.36-1.28,2.68-1.98,1.4-.62,2.86-1.07,4.38-1.34,1.52-.27,2.98-.41,4.38-.41,1.32.16,2.1.82,2.33,1.98.23,1.25-.2,2.18-1.28,2.8-.78.47-1.6.88-2.45,1.23-.86.35-1.75.68-2.68.99-.7.16-1.44.27-2.22.35-.78.08-1.56.12-2.33.12-1.17,0-1.81.25-1.93.76-.12.51.1,1.03.64,1.58.78.78,2.14,1.19,4.08,1.23,1.94.04,4.03-.12,6.24-.47,2.22-.35,4.32-.88,6.3-1.58,1.98-.7,3.4-1.44,4.26-2.22Zm-11.79-3.38c.54-.7.56-1.07.06-1.11-.51-.04-1.25.1-2.22.41-.97.31-2.08.78-3.33,1.4-1.25.62-2.33,1.25-3.27,1.87,1.17.16,2.68-.02,4.55-.53,1.87-.5,3.27-1.19,4.2-2.04Z"/>
      <path class="cls-3" d="m313.64,156.54c2.41-.85,4.22-1.48,5.43-1.87,1.21-.39,2.29-.74,3.27-1.05.97-.31,2.06-.68,3.27-1.11,1.21-.43,3.01-1.07,5.43-1.93.78-.31,1.32-.43,1.63-.35.31.08.66.17,1.05.29.39.12.7.33.93.64.31.39.37.78.17,1.17-.2.39-.45.66-.76.82-.39.23-.82.47-1.28.7s-.9.39-1.28.47c-1.79.62-3,.99-3.62,1.11-.62.12-1.11.17-1.46.17s-.82.06-1.4.18c-.58.12-1.77.49-3.56,1.11-1.79.62-3.6,1.27-5.43,1.93-1.83.66-3.72,1.3-5.66,1.93-.62.31-1.22.84-1.81,1.58-.58.74-1.07,1.46-1.46,2.16-2.33,3.81-4.94,7.37-7.82,10.68-2.88,3.31-6.22,6.17-10.04,8.58-2.49,1.56-5,2.88-7.53,3.97-2.53,1.09-5.27,1.75-8.23,1.98-1.56.16-2.96.04-4.2-.35-1.48-.31-2.49-1.01-3.03-2.1-.54-1.09-.43-2.29.35-3.62.86-1.63,1.98-3.11,3.38-4.44,1.32-1.09,2.67-2.12,4.03-3.09,1.36-.97,2.7-1.96,4.03-2.98,3.73-2.49,7.61-4.63,11.61-6.42,4.01-1.79,7.99-3.54,11.96-5.25,1.55-.47,2.98-1.21,4.26-2.22,1.28-1.01,2.28-2.22,2.98-3.62,1.32-1.94,2.14-3.69,2.45-5.25.31-1.56.54-2.33.7-2.33-1.01.47-2.26,1.25-3.73,2.33-1.48,1.09-2.68,1.87-3.62,2.33-.86.47-1.67.84-2.45,1.11-.78.27-1.6.53-2.45.76-.62.31-1.21.37-1.75.18-.54-.19-1.05-.53-1.52-.99-.62-1.09-.54-2.18.23-3.27.39-.62.86-1.24,1.4-1.87.54-.62,1.13-1.17,1.75-1.63,1.4-1.32,2.88-2.37,4.43-3.15,1.56-.78,3.23-1.4,5.02-1.87.47-.15.95-.23,1.46-.23h1.46c.39-.08.72-.12.99-.12s.6-.08.99-.23c.47-.15.91-.25,1.34-.29.43-.04.76.14.99.52.7.62.78,1.52.23,2.68-1.01,2.26-2,4.51-2.98,6.77-.97,2.26-2,4.4-3.09,6.42l2.92-.93Zm-37.93,30.46c2.8-.78,5.62-2,8.46-3.68,2.84-1.67,5.54-3.6,8.11-5.78,2.57-2.18,4.9-4.51,7-7,2.1-2.49,3.81-4.98,5.13-7.47-2.1.62-4.55,1.58-7.35,2.86s-5.6,2.74-8.4,4.38-5.46,3.31-7.99,5.02c-2.53,1.71-4.61,3.27-6.24,4.67-1.4,1.01-2.55,2.04-3.44,3.09-.89,1.05-1.36,1.97-1.4,2.74-.04.78.41,1.3,1.34,1.58.93.27,2.53.14,4.78-.41Zm25.67-36.88c-.55,1.01-.49,1.5.17,1.46.66-.04,1.58-.37,2.74-.99,1.17-.62,2.47-1.46,3.91-2.51,1.44-1.05,2.7-2.12,3.79-3.21-.78,0-1.67.14-2.68.41-1.01.27-2,.64-2.98,1.11-.97.47-1.91,1.03-2.8,1.69-.89.66-1.62,1.34-2.16,2.04Z"/>
      <path class="cls-3" d="m358.45,151.98c-1.17,1.01-2.59,1.83-4.26,2.45-1.67.62-3.27.97-4.79,1.05-1.52.08-2.78-.23-3.79-.93-1.01-.7-1.48-1.91-1.4-3.62,0-.16-.02-.29-.06-.41-.04-.12-.1-.33-.18-.64-.62.39-1.17.78-1.63,1.17-.47.39-1.01.78-1.63,1.17-.86.55-1.67,1.11-2.45,1.69-.78.58-1.63,1.07-2.57,1.46-.78.39-1.56.58-2.33.58-1.56,0-2.33-.78-2.33-2.33,0-.7.12-1.36.35-1.98.54-1.32,1.24-2.53,2.1-3.62.86-1.09,1.71-2.18,2.57-3.27.86-.7,1.59-.86,2.22-.47.62.62.62,1.4,0,2.33-.39.62-.8,1.21-1.23,1.75-.43.54-.88,1.13-1.34,1.75-.23.39-.62,1.05-1.17,1.98.47-.23.83-.37,1.11-.41.27-.04.53-.13.76-.29,1.32-1.09,2.66-2.16,4.03-3.21,1.36-1.05,2.7-2.12,4.03-3.21.31-.16.6-.39.88-.7.27-.31.6-.54.99-.7.23-.15.56-.23.99-.23s.8.08,1.11.23c.93.39,1.13,1.13.58,2.22-.16.54-.33,1.07-.53,1.58-.2.51-.37.99-.53,1.46-.39,1.48-.41,2.49-.06,3.03.35.54.91.82,1.69.82s1.63-.16,2.57-.47c.93-.31,1.83-.58,2.68-.82.39-.08.91-.25,1.58-.53.66-.27,1.24-.45,1.75-.52.5-.08.83-.02.99.17.15.2-.08.68-.7,1.46Z"/>
      <path class="cls-3" d="m368.02,150.12c.7-.7,1.23-1.54,1.58-2.51.35-.97.45-1.83.29-2.57-.16-.74-.58-1.24-1.28-1.52-.7-.27-1.71-.02-3.03.76-.62.39-1.28.9-1.98,1.52-.7.62-1.28,1.3-1.75,2.04-.47.74-.72,1.5-.76,2.28-.04.78.29,1.44.99,1.98.78.78,1.59,1.58,2.45,2.39.86.82,1.71,1.58,2.57,2.28,2.26-1.01,4.47-1.91,6.65-2.68,2.18-.78,4.39-1.83,6.65-3.15.93-.54,1.79-.86,2.57-.93.39,0,.78.06,1.17.17.39.12.66.45.82.99-.23.7-.62,1.19-1.17,1.46-.54.27-1.09.49-1.63.64-1.09.47-2.37.95-3.85,1.46-1.48.51-2.96,1.05-4.44,1.63-1.48.58-2.84,1.23-4.08,1.93-1.25.7-2.14,1.44-2.68,2.22-.62,1.25-1.67,2.37-3.15,3.38-1.63,1.09-3.33,2-5.08,2.74-1.75.74-3.64,1.23-5.66,1.46-1.01.08-2.1,0-3.27-.23-.31-.08-.56-.27-.76-.58-.19-.31-.33-.66-.41-1.05-.15-.39-.08-.66.23-.82.31-.16.62-.35.93-.58,1.87-1.56,3.87-2.94,6.01-4.14,2.14-1.21,4.57-2.24,7.29-3.09-.23-.23-.49-.45-.76-.64-.27-.19-.53-.45-.76-.76-.54-.47-1.07-.93-1.58-1.4-.51-.47-.95-.97-1.34-1.52-.86-1.09-1.28-2.24-1.28-3.44s.47-2.35,1.4-3.44c1.32-1.4,2.78-2.57,4.38-3.5,1.59-.93,3.36-1.52,5.31-1.75,2.41-.39,3.97.27,4.67,1.98.47.86.58,1.71.35,2.57-.23.86-.66,1.63-1.28,2.33-.62.78-1.21,1.34-1.75,1.69-.54.35-1.25.72-2.1,1.11-.08-.16-.16-.27-.23-.35-.08-.08-.16-.19-.23-.35Zm-13.89,14.35c-.54.93-.54,1.44,0,1.52.55.08,1.34-.12,2.39-.58,1.05-.47,2.24-1.15,3.56-2.04,1.32-.89,2.53-1.85,3.62-2.86-1.48,0-3.19.33-5.13.99-1.94.66-3.42,1.65-4.44,2.98Z"/>
      <path class="cls-3" d="m383.66,125.14c-1.79.23-2.9.08-3.33-.47-.43-.54-.56-.93-.41-1.17.23-.39.64-.76,1.23-1.11.58-.35,1.69-.45,3.33-.29,2.57.23,5.23.35,7.99.35s5.5-.19,8.23-.58c.23-.15.43-.35.58-.58,1.09-1.48,1.91-2.64,2.45-3.5.54-.85,1.05-1.63,1.52-2.33s.99-1.46,1.58-2.28c.58-.82,1.42-1.96,2.51-3.44.23-.47.6-.88,1.11-1.23.51-.35.99-.33,1.46.06.16.16.27.43.35.82.08.39.12.74.12,1.05-.08.31-.23.62-.47.93-.23.31-.43.58-.58.82-.86,1.17-1.46,2.02-1.81,2.57-.35.55-.68,1.09-.99,1.63-.31.55-.7,1.21-1.17,1.98-.47.78-1.28,1.98-2.45,3.62,1.63.31,3.75.53,6.36.64,2.61.12,5.43.16,8.46.12,3.03-.04,6.17-.16,9.39-.35,3.23-.19,6.32-.45,9.28-.76,1.87-.15,3.62-.31,5.25-.47,1.63-.15,2.99-.19,4.08-.12,1.94.16,2.84.55,2.68,1.17-.16.62-1.05,1.13-2.68,1.52-1.4.23-3.33.43-5.78.58-2.45.16-5.12.29-7.99.41-2.88.12-5.89.2-9.04.23-3.15.04-6.15.04-8.99,0-2.84-.04-5.41-.06-7.7-.06s-4.07-.04-5.31-.12c-1.32,1.71-2.7,3.58-4.14,5.6-1.44,2.02-2.84,4.08-4.2,6.19-1.36,2.1-2.63,4.14-3.79,6.13s-2.18,3.79-3.03,5.43c-.7,1.4-1.4,2.94-2.1,4.61-.7,1.67-1.15,3.15-1.34,4.44-.2,1.28.02,2.22.64,2.8.62.58,1.87.49,3.73-.29.86-.31,1.83-.78,2.92-1.4,1.09-.62,2.22-1.3,3.38-2.04,1.17-.74,2.29-1.52,3.38-2.33,1.09-.82,2.1-1.61,3.03-2.39.39-.23.7-.49.93-.76.23-.27.54-.48.93-.64.47-.31.88-.53,1.23-.64.35-.12.72.06,1.11.53.31.47.37.92.17,1.34-.19.43-.49.84-.88,1.23-.47.47-1.28,1.13-2.45,1.98-1.17.86-2.51,1.75-4.03,2.68-1.52.93-3.11,1.85-4.79,2.74-1.67.9-3.25,1.62-4.73,2.16-2.65.93-4.49,1.03-5.54.29-1.05-.74-1.63-1.85-1.75-3.33-.12-1.48.1-3.11.64-4.9.55-1.79,1.09-3.34,1.63-4.67.93-2.18,2.02-4.36,3.27-6.54,1.24-2.18,2.55-4.32,3.91-6.42,1.36-2.1,2.72-4.14,4.08-6.13,1.36-1.98,2.58-3.83,3.68-5.54-2.57.08-5.19.14-7.88.17-2.68.04-5.12.06-7.29.06Z"/>
    </g>
    <path class="cls-5" d="m266.63,116.06c-.06,1.64-.17,5.11-2.07,6.23-.37.22-.56.2-.65.19-1.49-.27-1.55-5.85-1.73-9.71-.51-10.93-.77-16.39-3.24-19.09-2.12-2.32-7.07-2.68-16.88-3.3-3.24-.21-5.18-.22-17.39-.21-11.12,0-12.9.02-15.93.21-9.79.63-14.7.93-16.87,3.3-2.47,2.71-2.73,8.17-3.24,19.09-.18,3.86-.25,9.44-1.73,9.71-.09.01-.29.03-.66-.19-1.9-1.13-2-4.59-2.06-6.23-.4-11.91-.87-11.71-.37-16.9.51-5.4,1.16-7.11,2.34-8.59,1.35-1.68,3.01-2.58,4.78-3.3,6.01-2.46,11.59-2.38,17.91-2.36,5.26.02,10.51-.09,15.77-.09,5.79,0,11.57.12,17.36.09,6.02-.03,11.81-.16,17.91,2.36,1.76.73,3.43,1.62,4.78,3.3,1.18,1.48,1.83,3.19,2.34,8.59.49,5.19.03,4.99-.37,16.9Z"/>
    <path class="cls-5" d="m255.26,79.81c-.04,1.28-.12,3.99-1.5,4.87-.27.17-.41.16-.47.15-1.08-.21-1.12-4.57-1.25-7.59-.37-8.54-.56-12.81-2.35-14.93-1.53-1.82-5.12-2.1-12.23-2.58-2.35-.16-3.75-.17-12.6-.17-8.05,0-9.34.02-11.54.17-7.09.49-10.65.72-12.22,2.58-1.79,2.12-1.98,6.39-2.35,14.93-.13,3.02-.18,7.38-1.25,7.59-.07,0-.21.02-.48-.15-1.38-.88-1.45-3.59-1.49-4.87-.29-9.31-.63-9.16-.27-13.21.37-4.22.84-5.56,1.69-6.72.98-1.31,2.18-2.02,3.46-2.58,4.36-1.93,8.39-1.86,12.97-1.84,3.81.02,7.61-.07,11.42-.07,4.19,0,8.38.09,12.58.07,4.36-.02,8.55-.12,12.97,1.84,1.27.57,2.48,1.27,3.46,2.58.85,1.16,1.33,2.5,1.69,6.72.35,4.05.02,3.9-.27,13.21Z"/>
    <path class="cls-5" d="m245.54,51.27c-.03,1.05-.08,3.28-1.01,4-.18.14-.27.13-.32.12-.73-.17-.76-3.76-.85-6.23-.25-7.02-.38-10.52-1.58-12.26-1.03-1.49-3.45-1.72-8.25-2.12-1.58-.13-2.53-.14-8.5-.14-5.43,0-6.3.01-7.78.14-4.78.4-7.18.6-8.24,2.12-1.21,1.74-1.33,5.24-1.58,12.26-.09,2.48-.12,6.06-.85,6.23-.04,0-.14.02-.32-.12-.93-.72-.98-2.95-1.01-4-.2-7.65-.42-7.52-.18-10.85.25-3.47.57-4.57,1.14-5.52.66-1.08,1.47-1.66,2.34-2.12,2.94-1.58,5.66-1.53,8.75-1.51,2.57.01,5.13-.06,7.7-.06,2.83,0,5.65.07,8.48.06,2.94-.02,5.77-.1,8.75,1.51.86.47,1.68,1.04,2.34,2.12.58.95.89,2.05,1.14,5.52.24,3.33.01,3.2-.18,10.85Z"/>
    <text class="cls-4" transform="translate(85.12 213.83)"><tspan x="0" y="0" xml:space="preserve">D U L C I U R I   D E   C A S A</tspan></text>
    <path class="cls-2" d="m225.4,31.74c-6.22,0-11.27-4.32-11.27-9.64s5.05-9.64,11.27-9.64,11.27,4.32,11.27,9.64-5.05,9.64-11.27,9.64"/>
    <path class="cls-6" d="m223.95,15.01c.47.17.87.2,1.03.21.18,0,.94.03,1.67-.33.27-.13.68-.33.65-.54-.05-.3-1.04-.41-1.37-.45-1.28-.14-2.93.01-3.02.39-.07.3.9.66,1.05.72h0Z"/>
    <path class="cls-5" d="m233.64.06c.29.1.45.31.62.55.13.18.5.69.31,1.1-.12.26-.3.29-.83.55,0,0-.48.13-1.46.83-3.33,2.37-4.69,4.96-4.69,4.96-2.08,3.29-1.92,6.64-2.32,6.61h0c-.17-.01-.27-.57-.31-1.1-.31-4.65,3.77-8.78,5.27-10.19.88-.83,2.14-1.98,2.05-2.48-.05-.26-.22-.06-.19-.27.07-.39.92-.75,1.55-.55"/>
    <text/>
    <path class="cls-1" d="m217.62,20.53c-.24-.82.09-1.54.3-1.98.19-.39.67-1.42,1.85-1.99.75-.36,1.73-.52,1.85-.29.31.56-.63.57-1.54,1.7-.35.44-.85,1.07-1.23,1.98-.34.83,0,1.41-.61,1.42-.23,0-.51-.46-.62-.84h0Z"/>
  </g>
</svg>