<?xml version="1.0" encoding="UTF-8"?>
<svg id="Layer_2" data-name="Layer 2" xmlns="http://www.w3.org/2000/svg" viewBox="0 0 456.18 353.74">
  <defs>
    <style>
      .cls-1 {
        fill: #fff;
      }

      .cls-2 {
        fill: #ec4f5d;
      }

      .cls-3, .cls-4 {
        fill: #fcdcdb;
        stroke: #fcdcdb;
        stroke-miterlimit: 10;
      }

      .cls-5 {
        fill: #451511;
      }

      .cls-6 {
        fill: #cd3441;
      }

      .cls-4 {
        stroke-width: 2px;
      }
    </style>
  </defs>
  <g id="Layer_1-2" data-name="Layer 1">
    <path class="cls-3" d="m454.19,275.87l.05-.02c-2.2-2.23-6.13-.34-13.65.39-5.46.53-11.3,1.05-17.55,1.57,0,0-2.85.25-8.58.72-26.6,2.19-39.89,3.29-54.43,2.59-4.24-.2-10.25-.63-17.52-1.61.29-.72.57-1.44.86-2.16,5.62-5.8,11.16-12.06,16.61-18.76,5.44-6.7,10.95-13.39,16.54-20.06,2.95-3.42,3.53-6.52,1.71-9.29-.44-1.53-1.41-2.44-2.91-2.72-1.51-.27-3.13-.37-4.88-.28-1.48.15-2.68.1-3.62-.16-.93-.26-2.1-.43-3.51-.55-1.6-.44-3.27-.9-5-1.38-1.74-.48-3.47-.68-5.22-.6-6.57-.12-12.89.4-18.95,1.55-6.07,1.15-12.12,3.3-18.15,6.44-2.58.99-5.09,2.28-7.54,3.86-2.44,1.59-4.62,3.25-6.54,4.98-3.69,2.95-4.98,6.56-3.86,10.83,1.16,2.02,2.59,3.62,4.27,4.79,1.68,1.18,3.74,1.53,6.17,1.07,3.15.02,6.18-.05,9.11-.24,2.92-.18,6.06-.65,9.44-1.42,3.64-.69,8.5-2.17,14.59-4.45,5.98-2.24,10.92-3.68,14.8-4.32-.65.32-2.12,2.72-4.4,7.2-2.53,4.97-6.97,10.11-13.32,15.42-3.71,4.07-8.24,7.21-13.59,9.41-5.35,2.2-10.91,3.35-16.68,3.45-15.2,2.02-30.51,4.15-45.93,6.39-15.41,2.25-30.68,5.81-45.82,10.67-5.48,2.17-11.01,4.25-16.58,6.24-5.58,2-11.15,4.21-16.7,6.63-6.04,3.15-11.29,7.07-15.76,11.78-3.9,3.74-5.43,7.7-4.59,11.9.85,4.2,3.67,7.53,8.44,9.98,3.91,2.5,8.6,4.22,14.08,5.17,10.36,2.02,20.38,2.39,30.06,1.1,9.7-1.28,19.53-3.36,29.53-6.26,15.33-4.53,29.47-11.02,42.44-19.47,12.96-8.44,25.23-18,36.8-28.67,1.99-2,4.33-3.96,7.02-5.91,2.11-1.52,4.14-2.6,6.09-3.2,3.46.08,7.62.17,12.33.26,16.1.32,24.15.48,25.7.44,0,0,38.47-.92,39.56,1.3.04.08.08.17.08.17.02.06.05.12.08.2.25.66.52,2.3.08,10.03-.14,2.49-.16,5.67.23,9.88.43,4.81,1.31,14.38,4.83,15.1,2.05.41,4.2-2.32,4.6-2.83,7.53-9.59-4.55-26.27,2.12-32.2,1.52-1.34,3.98-2.12,5.43-1.3,4.61,2.64-1.01,19.18,2.83,20.76,1.18.48,2.88-.64,3.72-1.56,3.3-3.63-1.54-9.61,1.56-16.84.77-1.8,1.32-3.08,2.69-3.92,2.98-1.85,6.58.35,9.92-2.25.54-.42.85-.78.91-.87,1.98-2.56,1.99-6.96,0-8.97Zm-110.63-32.66c-5.92,2.18-11.17,3.78-15.76,4.77-4.58,1-8.03,1.25-10.33.75-2.3-.49-2.05-2.19.77-5.1,2.52-1.85,5.62-3.46,9.31-4.85,3.68-1.38,7.41-2.41,11.19-3.06,3.77-.66,7.51-.96,11.24-.92,3.72.04,6.92.42,9.58,1.16-4.75,2.65-10.09,5.07-16,7.25Zm-51.64,67.46c-9.53,6.43-19.72,12.1-30.56,17.02-10.84,4.93-21.91,8.87-33.22,11.83-11.3,2.96-22.12,4.42-32.45,4.39-8.24-.3-13.84-1.35-16.78-3.16-2.95-1.81-3.99-4.01-3.13-6.6.86-2.59,3.32-5.24,7.37-7.94,4.05-2.7,8.95-5.1,14.7-7.19,6.91-3.18,15.5-6.46,25.77-9.85,10.27-3.38,20.98-6.51,32.11-9.37s22.1-5.14,32.9-6.82c10.81-1.68,20.1-2.57,27.89-2.68-6.87,7.16-15.07,13.95-24.6,20.37Z"/>
    <path class="cls-4" d="m324.45,187.74c-.78-5.31-3.42-10.19-7.9-14.65-3.31-3.28-6.82-5.89-10.52-7.83-3.71-1.93-7.6-3.67-11.7-5.22-9.55-3.67-19.34-6.53-29.38-8.56-10.04-2.03-20.12-3.81-30.25-5.36-4.49-.77-8.97-1.35-13.45-1.74-4.49-.39-9.16-.77-14.03-1.16,1.75-2.71,3.31-5.32,4.67-7.84,1.36-2.51,2.83-5.12,4.39-7.83,1.36-1.35,2.14-2.8,2.34-4.35.19-.58.19-1.25,0-2.03-.2-.77-.49-1.35-.88-1.74-.2-.39-.63-.58-1.31-.58s-1.23.19-1.61.58c-2.34,1.74-4.29,3.77-5.85,6.09-1.75,2.13-3.32,4.31-4.68,6.53-1.36,2.22-2.83,4.59-4.38,7.11-.98,1.35-2,2.37-3.07,3.04-.55.35-1.11.58-1.64.72h-.01c-26.4-3.38-80.77-4.08-103.77,2.97-5.75,1.77-12.25,4.47-16.14,9.58-4.36,5.74-7.75,16.24-7.72,24.27.07,19.95,1.4,44.04,6.31,44.07h.01c1.62-.01,5.61-2.62,4.91-30.66-.54-21.35,4.19-26.73,8.42-30.65,2.64-2.45,9.77-6.8,32.3-8.3,18.12-1.22,47.04-2.56,71.62-2.56h.42c-.7,1.22-1.28,2.28-1.73,3.18-.49.97-1.02,1.93-1.61,2.9-15.78,24.37-31.47,48.54-47.06,72.52-15.6,23.98-31.29,48.06-47.07,72.23-1.17,1.74-2.39,3.05-3.66,3.92s-2.68,1.69-4.24,2.46c-9.94,4.26-20.27,7.93-30.98,11.02-10.73,3.1-20.32,5.91-28.8,8.42-8.48,2.51-15.15,4.83-20.03,6.96-4.87,2.13-6.43,4.25-4.67,6.38,0,.39.05.63.14.73.1.1.15.34.15.72,3.12,2.13,7.55,2.76,13.3,1.89,5.75-.87,12.28-2.56,19.59-5.08,7.31-2.51,15.05-5.56,23.24-9.14,8.18-3.57,16.27-7,24.26-10.3-.97,1.94-2.24,4.41-3.8,7.4-1.56,3-3.07,6.09-4.53,9.28-1.46,3.2-2.78,6.15-3.94,8.85-1.17,2.71-1.71,4.64-1.61,5.8.09,1.16.82,1.26,2.19.29,1.36-.97,3.9-3.58,7.6-7.83,2.53-3.28,5.02-7.01,7.46-11.17,2.43-4.15,4.72-7.97,6.87-11.45,1.55-2.13,3.16-3.87,4.82-5.23,1.65-1.35,3.85-2.51,6.58-3.48,13.64-5.02,27.23-9.91,40.78-14.65,13.54-4.73,27.14-9.81,40.78-15.23,12.08-5.02,23.97-10.05,35.67-15.08,11.69-5.03,23.39-10.34,35.08-15.95,8.19-3.87,16.17-8.13,23.97-12.77,7.8-4.64,15.4-9.86,22.81-15.66,3.31-2.71,6.57-5.61,9.79-8.7,3.21-3.1,5.89-6.68,8.04-10.74,3.11-5.6,4.28-11.07,3.51-16.39Zm-13.16,13.49c-1.95,2.71-4.05,5.22-6.28,7.54-2.25,2.32-4.64,4.55-7.17,6.68-8.18,6.77-16.71,12.66-25.58,17.69-8.87,5.03-17.98,9.77-27.33,14.21-18.32,8.71-36.6,16.64-54.82,23.79-18.22,7.16-36.79,14.21-55.69,21.18-3.9,1.35-7.8,2.71-11.69,4.06-3.9,1.35-7.8,2.61-11.7,3.77-.78.58-1.85.97-3.21,1.16l-.59-1.16c.98-1.55,1.9-3.09,2.78-4.64.88-1.55,1.8-3.09,2.78-4.64,9.94-15.28,19.92-30.61,29.96-45.98,10.04-15.37,20.03-30.79,29.97-46.27,4.48-6.77,8.92-13.68,13.3-20.74,4.39-7.06,8.72-14.26,13.01-21.61,1.36-2.9,3.9-4.25,7.6-4.06,14.23.97,28.21,2.75,41.95,5.37,13.74,2.61,27.34,6.14,40.78,10.58,3.32,1.36,6.53,2.81,9.65,4.35,3.12,1.55,6.04,3.29,8.77,5.23,4.48,3.09,7.06,6.67,7.75,10.73.68,4.06-.73,8.32-4.24,12.76Z"/>
    <path class="cls-3" d="m98.72,140.45c-3.03,0-3.86-19.7-3.91-36.01-.02-6.57,2.07-15.15,4.77-19.83,2.4-4.18,6.42-6.38,9.97-7.83,19.13-7.76,73.41-4.01,73.28,1.04-.03,1.19-3.8,3.66-11.71,3.66-15.18,0-33.03,1.1-44.23,2.09-13.92,1.23-18.31,4.79-19.94,6.78-2.61,3.2-5.54,7.6-5.2,25.05.44,22.97-2.04,25.05-3.03,25.05Z"/>
    <path class="cls-2" d="m141.12,74.77c-14.66,0-26.55-10.17-26.55-22.71s11.89-22.71,26.55-22.71,26.55,10.17,26.55,22.71-11.89,22.71-26.55,22.71"/>
    <path class="cls-6" d="m137.71,35.35c1.1.41,2.06.48,2.41.49.43.02,2.2.08,3.94-.78.64-.31,1.6-.79,1.53-1.27-.12-.71-2.45-.97-3.23-1.06-3.01-.33-6.91.03-7.11.92-.16.72,2.13,1.57,2.47,1.69h0Z"/>
    <path class="cls-5" d="m160.53.14c.69.23,1.07.74,1.46,1.3.3.42,1.17,1.64.73,2.59-.28.62-.7.69-1.95,1.3,0,0-1.14.3-3.45,1.95-7.84,5.59-11.04,11.68-11.04,11.68-4.89,7.76-4.53,15.64-5.48,15.58h0c-.39-.03-.65-1.35-.73-2.6-.74-10.95,8.88-20.69,12.41-24.02,2.07-1.95,5.04-4.67,4.83-5.84-.12-.62-.53-.14-.44-.65.16-.93,2.17-1.78,3.65-1.3"/>
    <path class="cls-6" d="m140.27,74.78c1.55-1.12,4.65-3.22,7.01-5.45,2.77-2.61,4.48-4.59,6.23-7.62,2.14-3.72,2.71-7.35,2.85-9.66.03-.46.06-1.15.04-1.95-.15-5.8-2.67-10.24-3.66-11.93-2.51-4.28-5.66-7.02-7.79-8.57h0c7.01.78,12.91,3.83,17.92,9.35.93,1.02,5.44,6.18,4.67,14.8-.97,10.98-9.35,16.36-14.8,18.7"/>
    <path class="cls-1" d="m122.78,48.37c-.56-1.92.22-3.64.7-4.66.44-.93,1.58-3.33,4.35-4.68,1.76-.86,4.07-1.23,4.37-.69.74,1.32-1.48,1.34-3.62,4.01-.82,1.03-2.01,2.52-2.89,4.67-.79,1.96.02,3.33-1.44,3.33-.54,0-1.2-1.07-1.47-1.99h0Z"/>
    <path class="cls-3" d="m40.67,328.95c-6.2,0-7.88-30.39-7.97-55.55-.03-10.13,4.24-23.36,9.73-30.59,4.91-6.45,13.1-9.85,20.35-12.08,39.05-11.98,149.87-6.2,149.6,1.61-.07,1.84-7.76,5.63-23.9,5.63-30.99,0-67.44,1.69-90.29,3.22-28.41,1.9-37.39,7.38-40.72,10.47-5.33,4.94-11.3,11.72-10.62,38.64.89,35.42-4.17,38.64-6.2,38.64h.01Z"/>
  </g>
</svg>