<?xml version="1.0" encoding="UTF-8"?>
<svg id="Layer_2" data-name="Layer 2" xmlns="http://www.w3.org/2000/svg" viewBox="0 0 595.72 354.56">
  <defs>
    <style>
      .cls-1 {
        fill: #fff;
      }

      .cls-2 {
        fill: #ec4f5d;
      }

      .cls-3 {
        stroke-width: .75px;
      }

      .cls-3, .cls-4, .cls-5, .cls-6 {
        fill: #fcdcdb;
      }

      .cls-3, .cls-4, .cls-6 {
        stroke: #fcdcdb;
        stroke-miterlimit: 10;
      }

      .cls-7 {
        fill: #451511;
      }

      .cls-8 {
        fill: #cd3441;
      }

      .cls-6 {
        stroke-width: 3px;
      }
    </style>
  </defs>
  <g id="Layer_1-2" data-name="Layer 1">
    <g>
      <path class="cls-4" d="m187.57,242.08c7.24-2.5,14.97-3.71,21.93-6.88,4.21-1.92,7.73-3.91,10.02-2.38,2.43,1.63,2.84,6.84.76,8.88-1.11,1.09-3.44,1.79-4.13,1.98-1.36.36-2.11.56-4.76.56-1.14,0-2.67.19-4.57.56-1.9.37-5.78,1.57-11.61,3.57-5.84,2.01-11.74,4.07-17.7,6.19-5.97,2.13-12.12,4.19-18.46,6.19-2.03,1-4,2.69-5.9,5.07-1.9,2.38-3.49,4.69-4.76,6.94-7.61,12.26-16.12,23.71-25.51,34.34-9.39,10.64-20.3,19.83-32.74,27.59-8.12,5.01-16.31,9.26-24.56,12.76-8.24,3.51-17.19,5.63-26.84,6.38-5.07.5-9.64.13-13.71-1.13-4.82-1-8.12-3.25-9.9-6.76-1.77-3.5-1.39-7.38,1.14-11.64,2.8-5.25,6.47-10,11.04-14.26,4.32-3.5,8.7-6.81,13.14-9.95,4.44-3.13,8.82-6.32,13.13-9.57,12.18-8.01,24.81-14.88,37.88-20.64,13.08-5.75,26.08-11.38,39.02-16.89,5.07-1.5,9.71-3.88,13.9-7.13,4.19-3.25,7.42-7.13,9.71-11.64,4.31-6.25,6.98-11.88,7.99-16.89,1.01-5,1.77-7.51,2.28-7.51-3.3,1.5-7.36,4.01-12.18,7.51-4.82,3.51-8.76,6.01-11.8,7.51-2.8,1.5-5.46,2.69-8,3.57-2.54.88-5.21,1.69-8,2.44-2.03,1-3.94,1.19-5.71.56-1.77-.62-3.43-1.69-4.95-3.19-2.03-3.5-1.77-7,.76-10.51,1.27-2,2.8-4,4.57-6.01,1.77-2,3.68-3.75,5.71-5.25,4.57-4.25,9.39-7.63,14.47-10.13,5.07-2.5,10.53-4.5,16.37-6.01,1.52-.5,3.11-.75,4.76-.75h4.76c1.27-.25,2.34-.37,3.24-.37s1.96-.25,3.24-.75c1.52-.5,2.98-.81,4.38-.94,1.39-.12,2.47.44,3.24,1.69,2.28,2.01,2.53,4.88.76,8.63-3.3,7.26-6.54,14.51-9.71,21.77-3.18,7.26-6.54,14.14-10.09,20.64,11.76-3.01,20.97-5.96,27.39-8.17Zm-141.6,103.13c9.14-2.5,18.34-6.44,27.6-11.82,9.27-5.38,18.08-11.57,26.46-18.58,8.38-7,15.99-14.51,22.84-22.52,6.85-8.01,12.43-16.01,16.75-24.02-6.85,2.01-14.85,5.07-23.98,9.19-9.14,4.13-18.27,8.82-27.41,14.08s-17.83,10.64-26.08,16.14c-8.25,5.51-15.04,10.51-20.37,15.01-4.57,3.25-8.31,6.57-11.23,9.95-2.91,3.38-4.44,6.32-4.57,8.82-.12,2.5,1.33,4.19,4.38,5.07,3.05.88,8.25.44,15.61-1.31Zm83.76-118.61c-1.78,3.25-1.59,4.82.57,4.69,2.15-.12,5.14-1.18,8.95-3.19,3.81-2,8.05-4.69,12.75-8.07,4.69-3.38,8.82-6.81,12.37-10.32-2.54,0-5.46.44-8.76,1.31-3.3.88-6.54,2.06-9.71,3.57-3.18,1.5-6.22,3.32-9.14,5.44-2.92,2.13-5.27,4.32-7.04,6.57Z"/>
      <path class="cls-4" d="m306.79,232.75c-3.75,3.25-8.32,5.88-13.7,7.88-5.38,2.01-10.51,3.13-15.39,3.38-4.88.25-8.95-.75-12.2-3-3.25-2.25-4.76-6.13-4.5-11.64,0-.5-.06-.94-.19-1.31-.13-.38-.32-1.06-.56-2.06-2.01,1.26-3.75,2.5-5.25,3.75-1.5,1.26-3.25,2.5-5.25,3.75-2.76,1.75-5.38,3.57-7.88,5.44-2.5,1.88-5.25,3.44-8.26,4.69-2.5,1.25-5.01,1.88-7.51,1.88-5,0-7.51-2.5-7.51-7.51,0-2.25.38-4.37,1.13-6.38,1.75-4.25,4-8.13,6.76-11.64,2.75-3.5,5.5-7,8.26-10.51,2.75-2.25,5.13-2.75,7.13-1.5,2,2.01,2,4.5,0,7.51-1.26,2.01-2.57,3.88-3.94,5.63-1.38,1.75-2.82,3.63-4.32,5.63-.75,1.25-2.01,3.38-3.75,6.38,1.5-.75,2.69-1.18,3.57-1.31.87-.12,1.69-.43,2.44-.94,4.25-3.5,8.57-6.94,12.95-10.32,4.38-3.38,8.69-6.81,12.95-10.32,1-.5,1.94-1.25,2.82-2.25.87-1,1.94-1.75,3.19-2.25.75-.5,1.81-.75,3.19-.75s2.56.25,3.57.75c3,1.26,3.62,3.63,1.88,7.13-.5,1.75-1.07,3.44-1.69,5.07-.63,1.63-1.19,3.19-1.69,4.69-1.26,4.76-1.31,8.01-.19,9.76,1.13,1.75,2.94,2.63,5.44,2.63s5.25-.5,8.26-1.5c3-1,5.88-1.88,8.63-2.63,1.25-.25,2.94-.81,5.07-1.69,2.12-.87,4-1.44,5.63-1.69,1.62-.25,2.69-.06,3.19.56.5.63-.25,2.19-2.25,4.69Z"/>
      <path class="cls-4" d="m389.36,226.94c-.48-.15-.96-.26-1.44-.35-.77-.14-1.54-.21-2.31-.21-2.51.25-5.26,1.25-8.25,3-7.26,4.26-14.4,7.64-21.39,10.14-7.01,2.51-14.14,5.38-21.39,8.63-2.76-2.25-5.51-4.69-8.26-7.32-2.76-2.63-5.38-5.19-7.88-7.7-2.25-1.75-3.32-3.88-3.2-6.38.13-2.5.94-4.94,2.44-7.32,1.5-2.38,3.38-4.57,5.63-6.57,2.25-2,4.38-3.62,6.38-4.88,4.26-2.5,7.51-3.31,9.76-2.43,2.25.88,3.63,2.51,4.13,4.87.5,2.39.19,5.14-.93,8.26-1.13,3.13-2.81,5.82-5.06,8.07.25.51.49.88.74,1.13.25.25.5.63.75,1.13,2.75-1.25,5-2.44,6.75-3.57s3.63-2.94,5.63-5.44c2.01-2.25,3.39-4.76,4.13-7.51.75-2.75.38-5.5-1.13-8.26-2.25-5.5-7.26-7.63-15.01-6.38-6.25.75-11.95,2.62-17.07,5.63-5.13,3-9.82,6.76-14.08,11.26-3,3.5-4.5,7.19-4.5,11.07,0,.71.05,1.41.14,2.1.25,1.94.87,3.84,1.84,5.69.59,1.12,1.31,2.21,2.15,3.28,1.24,1.76,2.69,3.39,4.31,4.88,1.62,1.5,3.31,3,5.07,4.5.74,1.01,1.56,1.82,2.43,2.44.88.63,1.69,1.32,2.44,2.06-8.76,2.76-16.57,6.07-23.46,9.95-6.88,3.89-13.33,8.32-19.33,13.33-1,.75-2,1.38-3,1.88-1,.5-1.25,1.38-.75,2.62.25,1.25.69,2.39,1.32,3.38.63,1.01,1.43,1.63,2.43,1.88,3.76.75,7.26,1.01,10.51.75,6.51-.75,12.57-2.31,18.21-4.69,5.63-2.38,11.06-5.31,16.32-8.82,4.76-3.25,8.13-6.88,10.14-10.88,1.74-2.5,4.62-4.87,8.63-7.13,3.99-2.25,8.38-4.31,13.13-6.19,4.75-1.88,9.5-3.62,14.26-5.26,4.76-1.62,8.89-3.19,12.39-4.69.49-.14.97-.29,1.46-.46,1.26-.44,2.53-.96,3.79-1.6,1.74-.87,3-2.44,3.75-4.69-.5-1.74-1.38-2.81-2.62-3.19Zm-77.32,42.41c-4.26,2.88-8.07,5.07-11.45,6.57-3.39,1.5-5.95,2.12-7.7,1.87-1.75-.25-1.75-1.87,0-4.87,3.25-4.25,8.01-7.44,14.26-9.57,6.25-2.12,11.76-3.2,16.52-3.2-3.51,3.26-7.39,6.33-11.64,9.2Z"/>
      <path class="cls-4" d="m389.36,226.94c-.48-.15-.96-.26-1.44-.35-1.16,2.95-2.32,6.23-3.48,9.83,1.26-.44,2.53-.96,3.79-1.6,1.74-.87,3-2.44,3.75-4.69-.5-1.74-1.38-2.81-2.62-3.19Z"/>
    </g>
    <path class="cls-5" d="m35.58,194.95c-4.28,0-5.44-21-5.51-38.38-.02-7,2.93-16.14,6.73-21.14,3.39-4.45,9.05-6.8,14.06-8.35,26.98-8.28,103.55-4.28,103.36,1.11-.05,1.27-5.36,3.89-16.51,3.89-21.41,0-46.6,1.17-62.38,2.23-19.63,1.31-25.83,5.1-28.13,7.23-3.68,3.42-7.81,8.1-7.34,26.7.61,24.47-2.88,26.7-4.28,26.7h0Z"/>
    <path class="cls-6" d="m324.65,74.36c-1.39,3.66-3.26,6.93-5.61,9.82-2.34,2.9-4.72,5.63-7.18,8.2-5.49,5.53-11.18,10.57-17.07,15.13-5.89,4.56-11.96,8.8-18.23,12.72-8.94,5.67-17.91,11.09-26.89,16.26-8.99,5.18-18.14,10.36-27.43,15.56-13.64,7.63-17.1,8.75-24.72,12.53,0,0-3.23,1.62-6.81,3.52-13.07,6.95-34.2,20.34-47.42,26.65-26.98,12.88-56.3,13.11-68.02,13.2-9.2.07-18.37,1.23-27.55,1.89-20.05,1.44-26.39,5.57-28.73,7.88-3.77,3.73-7.98,8.83-7.5,29.11.05,2.1.07,4.06.07,5.87,0,21.12-3.11,23.22-4.44,23.23-4.37-.04-5.56-22.9-5.62-41.83-.03-7.63,2.99-17.6,6.87-23.04,3.65-5.1,9.35-7.22,14.37-9.1,28.34-10.61,58.55-1.35,91.59-8.72,7.03-1.57,17.31-4.53,29.32-10.65,17.91-8.66,30.16-14.76,38.28-18.86,2.53-1.28,17.3-8.75,17.3-8.75,10.02-5.15,18.21-9.5,25.72-13.49,14.05-7.47,23.57-14.49,37.58-23.3,7.16-4.5,14.09-9.23,20.82-14.21,6.72-4.96,13.1-10.65,19.14-17.07,1.86-2.01,3.6-4.1,5.23-6.26,1.61-2.16,3.09-4.47,4.45-6.95,2.47-4.07,3.27-7.84,2.41-11.28-.86-3.45-3.21-6.34-7.04-8.68-2.34-1.47-4.82-2.75-7.45-3.86-2.62-1.1-5.31-2.12-8.06-3.04-11.13-2.86-17.78-6.05-29.01-7.31-15.65-1.74-27.04-1.7-34.06-1.59-2.98.11-4.91,1.46-5.77,4.05-2.88,6.64-5.79,13.15-8.76,19.54-2.97,6.39-5.99,12.66-9.06,18.8-9.46,18.95-15.92,32.17-20.44,41.99-4.47,9.7-9.35,20.47-15.44,38.09-8.62,4.31-15.99,7.83-24.61,12.14,15.7-26.34,25.73-45.27,35.08-63.42,17.94-34.85,26.79-56.3,31.31-67.74.56-1.42,1.02-2.59,1.33-3.38-9.34-.47-20.33-.63-32.64-.02-21.65,1.06-36.83,3.57-38.81-1.37-.67-1.68.37-3.78,1.78-5.67.63-.13,1.59-.34,2.76-.57,5.07-1,17.23-3.16,36.54-3.4,10.49-.13,21.5.33,26.74.25.49,0,3.1-.06,6.61-.02.98.01,1.78.02,2.27.03,1.41-3.59,2.99-6.33,4.2-8.2,2.01-3.1,7.41-11.46,12.18-10.51.49.1.87.28,1.11.4.33.31.61.79.83,1.44.22.65.26,1.23.15,1.75-.03,1.34-.54,2.65-1.53,3.91-.92,2.32-1.89,4.67-2.9,7.06-.86,1.99-1.71,3.95-2.58,5.87,2.09.14,31.47,2.22,46.37,4.15,2.97.38,6.37.88,10.37,1.69,4.66.94,9.28,2.12,13.85,3.54,3.4,1.05,6.66,2.26,9.79,3.65,3.12,1.4,6.13,3.4,9.05,5.98,3.94,3.51,6.42,7.52,7.46,12.04,1.03,4.52.52,9.3-1.55,14.35Z"/>
    <path class="cls-5" d="m57.21,122.34c-2.64,0-3.36-17.16-3.4-31.37-.01-5.72,1.81-13.19,4.16-17.28,2.09-3.64,5.59-5.56,8.69-6.82,16.66-6.76,63.94-3.5,63.83.91-.03,1.04-3.31,3.18-10.2,3.18-13.22,0-28.77.96-38.52,1.82-12.12,1.07-15.95,4.17-17.37,5.91-2.27,2.79-4.82,6.62-4.53,21.82.38,20.01-1.78,21.82-2.64,21.82Z"/>
    <path class="cls-3" d="m593.91,133.29c-2.12-2.15-5.9-.33-13.13.37-5.26.51-10.88,1.01-16.89,1.51-9.51,1-19.45,1.82-29.84,2.43-10.38.63-20.46,1.01-30.22,1.13-9.76.14-18.83,0-27.21-.37-8.39-.37-15.2-1.06-20.45-2.06,3.75-5.26,6.38-9.13,7.88-11.64,1.51-2.51,2.75-4.63,3.76-6.38,1-1.75,2.06-3.5,3.19-5.26s3.06-4.5,5.82-8.26c.5-.75,1.13-1.62,1.88-2.62.75-1,1.24-2.01,1.5-3,0-1-.13-2.12-.37-3.38-.25-1.25-.63-2.12-1.13-2.63-1.51-1.24-3.07-1.31-4.69-.18-1.63,1.13-2.81,2.43-3.57,3.94-3.5,4.76-6.19,8.44-8.07,11.07-1.88,2.62-3.57,5.07-5.07,7.32-1.51,2.25-3.13,4.76-4.88,7.51-1.75,2.76-4.38,6.51-7.88,11.26-.51.75-1.13,1.38-1.88,1.88-46.12,4.41-79.79,7.31-85.78,7.58-1.43.06-5.34.11-7.74-2.31-1.03-1.03-1.43-2.02-1.21-2.99.22-.95,1.43-1.43,3.64-1.43,1.47,0,2.95-.07,4.42-.23,1.47-.15,2.88-.36,4.2-.66,1.77-.58,3.46-1.22,5.08-1.88,1.62-.66,3.17-1.43,4.64-2.31,2.07-1.18,2.88-2.95,2.43-5.31-.44-2.21-1.92-3.46-4.42-3.76-2.65,0-5.41.26-8.29.78-2.87.52-5.64,1.36-8.29,2.54-2.51,1.33-4.2,2.58-5.08,3.76-.89,1.18-1.84,3.24-2.88,6.18-.05.17-.08.34-.11.5-.84.54-1.77,1.26-2.76,2.16-3.1,3.09-6.48,6.23-10.17,9.39-3.69,3.18-7.15,6.23-10.39,9.18-2.8,2.51-5.67,4.94-8.61,7.3-2.95,2.35-5.9,4.64-8.84,6.84-.59.74-1.37,1.26-2.32,1.55-.96.3-2.18.81-3.65,1.54.59-3.68,1.4-6.84,2.43-9.5,1.03-2.65,2.21-5.23,3.54-7.73,5.16-10.61,10.72-20.96,16.68-31.05,5.97-10.09,12.27-20.22,18.9-30.39.42-.64,1.19-2.24,2.54-4.2,2.11-3.07,5.37-6.92,11.2-11.19,7.33-5.37,7.52-2.49,12.51-7.32,3.46-3.34,7.89-7.57,13.28-12.71,1.79-2.05,4.09-3.34,6.93-3.86,4.62-1.03,9.29-1.86,14.05-2.51,4.75-.64,9.56-1.48,14.43-2.51,2.57-.25,4.94-.58,7.13-.97,2.18-.38,4.56-.83,7.13-1.35.51,0,1.28-.38,2.31-1.15,1.03-.77,1.54-1.41,1.54-1.92.25-1.03.05-1.99-.58-2.89-.64-.9-1.35-1.6-2.11-2.11-1.29-.52-2.25-.77-2.9-.77h-2.89c-2.31.52-5,.91-8.08,1.16-3.09.25-5.65.64-7.71,1.15-2.82.52-5.65.96-8.47,1.35-2.82.39-5.77.84-8.85,1.35.77-1.8,1.47-3.28,2.11-4.43.64-1.15,1.22-2.37,1.73-3.66.51-2.31,1.15-4.56,1.92-6.74.76-2.18,1.15-4.3,1.14-6.35.25-4.37-.77-7.51-3.08-9.43-2.31-1.92-5.65-2.63-10.01-2.11-3.08.26-5.77.96-8.09,2.12-2.31,1.15-4.49,2.5-6.54,4.04-5.13,4.11-9.94,8.28-14.43,12.52-4.49,4.24-8.41,8.92-11.74,14.06-3.65,5.63-7.74,11.96-8.46,18.67-.81,7.58,3.54,7.81,3.44,15.37-.05,3.72-1.1,3.96-13.05,24.01,0,0-4.63,8.16-12.49,16.02-1.18,1.18-2.47,2.18-3.87,2.99-1.41.81-2.99,1.36-4.76,1.65-2.06,0-4.28.53-6.63,1.55-3.25,1.18-6.23,2.69-8.96,4.53-2.72,1.84-5.12,4.09-7.18,6.74-.44,1.03-.88,2.06-1.33,3.1-.44,1.03-.74,2.06-.88,3.1-.15,1.76.36,3.17,1.54,4.19,1.18,1.03,2.72,1.41,4.64,1.11.89-.15,1.77-.41,2.66-.77.88-.37,1.69-.7,2.42-1,4.72-3.39,9.51-7.07,14.37-11.05.59-.44,1.14-.89,1.66-1.33.52-.44,1.13-.96,1.88-1.55,0,.74-.07,1.33-.22,1.77-.15.44-.37.96-.67,1.54-2.21,4.42-4.42,8.92-6.63,13.49-2.21,4.57-4.35,9.06-6.41,13.48-.74,1.62-1.33,3.29-1.77,4.97-.44,1.7-.81,3.42-1.11,5.19-.44,2.65.25,4.65,2.1,5.97,1.84,1.33,4.02,1.54,6.53.66,1.18-.3,2.32-.74,3.42-1.33,1.11-.59,2.18-1.25,3.2-1.99,7.08-4.87,13.67-10.2,19.79-16.03,5.95-5.66,11.87-11.51,17.76-17.53,0,.02.02.05.03.06.88,1.7,2.24,2.99,4.08,3.88,1.84.88,3.9,1.4,6.19,1.54,3.74.24,6.52,0,6.52,0,16.87-1.96,33.94-1.34,50.91-2.02,5.7-.23,14.46-.51,25.33-.56-3.51,5.51-7.45,11.45-11.83,17.83-4.38,6.38-8.76,12.95-13.13,19.71-4.38,6.76-8.58,13.64-12.57,20.65-4.01,7.01-7.51,14.01-10.51,21.01-.23.55-.46,1.13-.69,1.72.48.09.96.21,1.44.35,1.24.37,2.12,1.44,2.62,3.19-.74,2.25-2.01,3.82-3.75,4.69-1.26.64-2.53,1.16-3.79,1.6-.36,1.13-.73,2.28-1.09,3.47-1.75,5.76-2.44,11.02-2.06,15.77.37,4.76,2.25,8.32,5.63,10.69,3.38,2.39,9.31,2.07,17.83-.93,4.75-1.75,9.81-4.07,15.2-6.94,5.37-2.88,10.5-5.82,15.39-8.82,4.87-3,9.2-5.87,12.95-8.63,3.75-2.75,6.37-4.87,7.88-6.38,1.24-1.24,2.19-2.56,2.81-3.94.62-1.37.44-2.81-.56-4.31-1.25-1.51-2.44-2.07-3.57-1.69-1.13.37-2.44,1.06-3.94,2.06-1.25.51-2.25,1.19-3,2.06-.75.88-1.75,1.69-3,2.44-3,2.51-6.25,5.06-9.76,7.7-3.5,2.62-7.13,5.13-10.88,7.51-3.75,2.38-7.38,4.57-10.88,6.56-3.5,2.01-6.64,3.51-9.39,4.51-6,2.51-10.01,2.81-12.01.93-2.01-1.88-2.7-4.88-2.06-9,.62-4.13,2.06-8.89,4.31-14.27,2.25-5.37,4.5-10.32,6.75-14.82,2.75-5.26,6.01-11.07,9.76-17.46,3.76-6.38,7.82-12.94,12.2-19.71,4.38-6.75,8.89-13.38,13.52-19.89,4.63-6.51,9.07-12.51,13.33-18.02,4,.25,9.69.37,17.07.37s15.64.06,24.77.19c17.79.25,26.69.07,28.9,0,24.35-.72,32.72-3.33,35.77,1.48,2.23,3.52-.78,5.94.45,19.52.42,4.62,1.26,13.83,4.65,14.52,1.97.4,4.04-2.23,4.43-2.72,7.24-9.23-4.38-25.27,2.04-30.98,1.46-1.29,3.83-2.04,5.22-1.25,4.44,2.54-.97,18.45,2.72,19.97,1.14.47,2.77-.61,3.58-1.5,3.18-3.49-1.48-9.24,1.5-16.2.74-1.73,1.27-2.96,2.59-3.77,2.87-1.78,6.33.34,9.55-2.17.52-.4.81-.75.87-.83,1.91-2.47,1.92-6.7,0-8.63Zm-237.93-2.94c2.36-1.18,4.46-2.07,6.3-2.66,1.84-.58,3.24-.84,4.2-.77.95.08.92.77-.11,2.1-1.77,1.62-4.42,2.91-7.96,3.88-3.53.95-6.41,1.29-8.61.99,1.76-1.18,3.82-2.35,6.18-3.53Zm9.29-92.83c4.37-7.71,11.03-12.96,20.01-15.79,0,1.53.13,2.82.39,3.85.25,1.03.13,1.8-.38,2.31-.77,2.31-1.73,4.76-2.89,7.32-1.15,2.57-2.51,4.88-4.04,6.93-1.03,2.06-2.89,3.21-5.58,3.47-2.7.26-4.81-.38-6.35-1.92-1.29-1.02-1.92-2.05-1.92-3.08s.25-2.05.76-3.08Zm-12.7,9.63c.77,3.59,2.44,6.09,5.01,7.5,2.56,1.42,5.9,2.11,10.01,2.11-2.57,5.39-5.58,8.92-9.05,10.59-3.46,1.67-6.42,1.92-8.85.77-2.44-1.15-3.66-3.59-3.66-7.31s2.17-8.29,6.54-13.67Zm-66.88,94.03c1.18-2.36,2.88-4.31,5.08-5.86,2.21-1.54,4.57-2.69,7.07-3.42-2.21,3.83-6.26,6.93-12.15,9.29Z"/>
    <path class="cls-3" d="m475.2,43.63c-2.16-2.69-1.85-6.02-1.73-6.93-1.54-3.59-3.73-5.39-6.55-5.39s-5.71.84-8.66,2.5c-2.95,1.67-5.71,3.79-8.28,6.36s-4.62,4.49-6.16,5.78c-8.98,7.45-15.91,15.79-20.78,25.03-.77,2.06-1.98,3.73-3.66,5.01-1.67,1.29-3.27,2.12-4.81,2.51s-2.89.19-4.04-.58-1.73-2.31-1.73-4.62c0-1.28.26-2.31.77-3.08.52-.77,1.03-1.67,1.54-2.7,4.87-8.72,9.62-17.46,14.23-26.18,4.62-8.72,9.36-17.46,14.23-26.19,1.28-2.56,2.95-4.87,5-6.93.51-.51,1.22-.9,2.12-1.16.9-.25,1.6-.13,2.12.38,1.79,1.03,2.44,2.44,1.93,4.23,0,1.8-.52,3.98-1.54,6.55-1.8,3.34-3.46,6.68-5,10.01-1.54,3.34-2.95,6.8-4.23,10.4,2.05-1.54,3.33-2.56,3.85-3.08,2.56-2.05,4.94-4.05,7.12-5.97,2.18-1.93,4.43-3.66,6.74-5.2,3.08-2.56,6.54-4.1,10.39-4.62,3.91-.91,7.13-.63,9.65.84,1.56.91,2.77,2.15,5.37,7.63,4.9,10.34,7.05,14.17,5.01,16.74-2.19,2.76-9.5,2.89-12.9-1.34Z"/>
    <path class="cls-2" d="m94.15,65.13c-12.77,0-23.12-8.86-23.12-19.79s10.35-19.79,23.12-19.79,23.12,8.86,23.12,19.79-10.35,19.79-23.12,19.79"/>
    <path class="cls-8" d="m91.17,30.79c.96.35,1.79.41,2.1.43.37.02,1.92.07,3.43-.68.56-.27,1.4-.69,1.33-1.11-.1-.62-2.13-.84-2.82-.92-2.63-.29-6.02.03-6.19.8-.14.62,1.85,1.36,2.15,1.47h0Z"/>
    <path class="cls-7" d="m111.05.12c.6.2.93.64,1.27,1.13.26.37,1.02,1.42.64,2.26-.24.54-.61.6-1.7,1.13,0,0-.99.26-3.01,1.7-6.83,4.87-9.61,10.18-9.61,10.18-4.26,6.76-3.94,13.62-4.77,13.57h0c-.34-.03-.56-1.17-.64-2.27-.64-9.54,7.74-18.02,10.81-20.92,1.8-1.7,4.39-4.07,4.21-5.09-.1-.54-.46-.12-.39-.56.14-.81,1.89-1.55,3.18-1.13"/>
    <path class="cls-8" d="m93.41,65.13c1.35-.98,4.05-2.81,6.11-4.75,2.41-2.27,3.9-4,5.43-6.64,1.87-3.24,2.36-6.41,2.48-8.41.03-.4.05-1,.03-1.7-.13-5.05-2.33-8.92-3.19-10.39-2.18-3.73-4.93-6.11-6.79-7.46h0c6.11.68,11.24,3.34,15.61,8.14.81.89,4.74,5.38,4.07,12.89-.84,9.56-8.14,14.25-12.89,16.28"/>
    <path class="cls-1" d="m78.17,42.13c-.49-1.68.19-3.17.61-4.06.38-.81,1.38-2.9,3.79-4.08,1.53-.75,3.55-1.07,3.81-.6.64,1.15-1.29,1.17-3.16,3.49-.71.9-1.75,2.19-2.52,4.07-.69,1.71.02,2.9-1.26,2.9-.47,0-1.04-.94-1.28-1.73h0Z"/>
  </g>
</svg>